<?xml version="1.0" encoding="utf-8"?>
<!-- Generator: Adobe Illustrator 18.1.1, SVG Export Plug-In . SVG Version: 6.00 Build 0)  -->
<!DOCTYPE svg PUBLIC "-//W3C//DTD SVG 1.0//EN" "http://www.w3.org/TR/2001/REC-SVG-20010904/DTD/svg10.dtd">
<svg version="1.0" xmlns="http://www.w3.org/2000/svg" xmlns:xlink="http://www.w3.org/1999/xlink" x="0px" y="0px"
	 width="510.236px" height="164.41px" viewBox="0 0 510.236 164.41" enable-background="new 0 0 510.236 164.41"
	 xml:space="preserve">
<g id="Layer_1">
	<g>
		<path fill="#051B32" d="M376.655,113.938h11.326v-62.82h-6.157c-4.622,0-6.867,2.246-6.867,6.864v27.795
			c0,0.529,0.015,1.084,0.035,1.658l0.091,2.243l-1.174-1.916c-0.58-0.955-1.137-1.825-1.651-2.576l-23.32-34.068h-11.649v62.82
			h6.392c4.683,0,6.867-2.18,6.867-6.864V79.363c0-0.514-0.014-1.058-0.037-1.614l-0.088-2.229l1.173,1.899
			c0.589,0.965,1.148,1.819,1.651,2.538L376.655,113.938L376.655,113.938z"/>
	</g>
	<g>
		<path fill="#EF4623" d="M94.818,113.938h11.326v-62.82h-6.157c-4.622,0-6.867,2.246-6.867,6.864v27.795
			c0,0.529,0.014,1.084,0.035,1.658l0.09,2.243l-1.173-1.916c-0.58-0.955-1.136-1.825-1.651-2.576L67.101,51.118H55.452v62.82h6.392
			c4.682,0,6.867-2.18,6.867-6.864V79.363c0-0.514-0.014-1.058-0.037-1.614l-0.088-2.229l1.174,1.899
			c0.589,0.965,1.148,1.819,1.651,2.538L94.818,113.938L94.818,113.938z"/>
	</g>
	<path fill="#EF4623" d="M142.278,64.015c-2.381,1.002-4.459,2.387-6.222,4.151c-1.77,1.767-3.151,3.815-4.151,6.152
		c-1.001,2.34-1.502,4.845-1.502,7.516v-0.304h25.76v12.736h-25.76v19.745h-12.739V81.835c0-4.484,0.835-8.659,2.509-12.523
		c1.668-3.866,3.98-7.249,6.936-10.164c2.96-2.908,6.397-5.197,10.304-6.867c3.91-1.667,8.066-2.504,12.456-2.504h6.294v12.736
		h-6.294C147.19,62.512,144.664,63.013,142.278,64.015z"/>
	<path fill="#EF4623" d="M214.562,98.099l-2.697-2.296c-0.619,0.709-1.296,1.331-1.985,1.888v0.046
		c-1.94,1.512-4.065,2.635-6.308,3.367c-0.812,0.274-1.326,0.395-1.326,0.395v-0.005c-1.589,0.399-3.229,0.607-4.896,0.607
		c-10.987,0-19.93-8.975-19.93-20.007c0-10.989,8.942-19.93,19.93-19.93c5.425,0,10.445,2.08,14.143,5.859l0.408,0.417l8.634-8.546
		l-0.411-0.413c-6.041-6.039-14.341-9.501-22.773-9.501c-17.708,0-32.112,14.406-32.112,32.114
		c0,17.707,14.404,32.112,32.112,32.112c8.888,0,17.314-3.654,23.37-10.073L214.562,98.099z"/>
	<rect x="237.229" y="50.977" fill="#051B32" width="1.177" height="63.035"/>
	<path fill="#051B32" d="M254.647,51.16h23.215c12.806,0,23.307,5.99,23.307,20.635c0,9.487-4.973,15.478-12.25,18.33l14.276,23.678
		h-14.74l-12.713-21.739h-8.198v21.739h-12.896V51.16z M277.495,81.193c6.354,0,10.408-2.486,10.408-9.397
		c0-7.001-4.234-9.304-10.408-9.304h-9.951v18.702H277.495z"/>
	<path fill="#051B32" d="M312.874,51.16h12.895v62.643h-12.895V51.16z"/>
	<path fill="#051B32" d="M396.749,82.482c0-18.516,13.079-32.059,31.966-32.059c10.226,0,17.598,2.764,22.755,8.662l-8.754,8.657
		c-3.129-3.224-6.724-5.709-14.001-5.709c-11.331,0-18.701,8.75-18.701,20.45c0,11.697,7.556,20.635,20.728,20.635
		c4.054,0,9.025-0.737,12.252-2.305v-8.225h-15.107V81.256h26.896v26.097c-3.593,2.949-12.618,7.281-24.042,7.281
		C410.29,114.633,396.749,100.998,396.749,82.482z"/>
</g>
<g id="Space">
	<g>
		<path fill="#081C30" d="M469.522,114.319c-0.948,0-1.835-0.175-2.66-0.525c-0.826-0.352-1.54-0.835-2.145-1.453
			c-0.604-0.617-1.082-1.338-1.433-2.163c-0.352-0.825-0.526-1.713-0.526-2.661c0-0.948,0.175-1.836,0.526-2.661
			c0.351-0.825,0.828-1.543,1.433-2.154c0.604-0.61,1.318-1.094,2.145-1.452c0.825-0.357,1.718-0.536,2.68-0.536
			c0.949,0,1.833,0.179,2.651,0.536c0.819,0.358,1.53,0.842,2.135,1.452c0.605,0.611,1.082,1.329,1.433,2.154
			c0.351,0.825,0.526,1.713,0.526,2.661c0,0.948-0.176,1.836-0.526,2.661c-0.351,0.825-0.828,1.546-1.433,2.163
			c-0.604,0.618-1.319,1.102-2.145,1.453C471.358,114.145,470.471,114.319,469.522,114.319z M469.522,113.014
			c0.767,0,1.476-0.14,2.125-0.419c0.649-0.279,1.212-0.666,1.687-1.16c0.474-0.493,0.845-1.075,1.111-1.744
			c0.266-0.67,0.399-1.388,0.399-2.154c0-0.767-0.134-1.484-0.399-2.154c-0.267-0.669-0.638-1.25-1.111-1.744
			c-0.475-0.494-1.037-0.884-1.687-1.17c-0.649-0.286-1.352-0.429-2.105-0.429c-0.767,0-1.475,0.143-2.124,0.429
			c-0.65,0.286-1.216,0.676-1.696,1.17c-0.482,0.494-0.854,1.075-1.121,1.744c-0.267,0.67-0.4,1.388-0.4,2.154
			c0,0.767,0.133,1.484,0.4,2.154c0.267,0.669,0.637,1.251,1.111,1.744c0.475,0.494,1.036,0.881,1.686,1.16
			C468.047,112.874,468.755,113.014,469.522,113.014z M467.163,104.047h2.651c0.429,0,0.796,0.062,1.102,0.185
			c0.305,0.124,0.559,0.283,0.76,0.478c0.201,0.195,0.348,0.413,0.439,0.653c0.091,0.241,0.137,0.478,0.137,0.712
			c0,0.441-0.11,0.842-0.331,1.198c-0.222,0.358-0.56,0.628-1.014,0.81l1.676,2.846h-1.482l-1.54-2.671h-1.092v2.671h-1.306V104.047
			z M469.756,107.225c0.402,0,0.695-0.098,0.877-0.293c0.182-0.195,0.273-0.455,0.273-0.779c0-0.338-0.098-0.592-0.293-0.761
			c-0.194-0.169-0.507-0.253-0.935-0.253h-1.209v2.086H469.756z"/>
	</g>
	<g>
	</g>
</g>
</svg>
